<svg width="491" height="487" viewBox="0 0 491 487" fill="none" xmlns="http://www.w3.org/2000/svg">
<path d="M304.535 164.848C304.4 160.967 303.878 134.088 304.89 132.092C306.71 132.053 320.125 142.585 322.142 144.137C326.992 147.856 331.867 151.543 336.767 155.197C343.407 160.197 354.735 167.966 360.323 173.222C360.67 174.263 360.915 175.227 360.973 176.328C361.29 182.334 361.362 240.4 360.865 241.459C360.715 241.778 360.48 242.031 360.258 242.3C358.178 244.83 355.7 247.009 353.337 249.27L339.517 262.318C330.782 270.708 322.23 279.448 313.078 287.325C312.183 288.095 308.91 291.323 308.37 291.658C307.065 292.475 304.55 294.863 303.04 296.018C296.935 296.405 289.85 296.2 283.633 296.18C273.298 296.098 262.957 296.11 252.622 296.218C249.731 296.24 240.576 295.985 238.401 296.49C232.762 295.425 221.419 296.205 215.264 296.02L215.274 340.275C215.277 344.545 215.624 359.903 214.794 363.273C214.748 363.458 214.586 363.813 214.506 364.003C212.489 365.005 164.851 363.933 157.46 364.708C157.887 360.01 157.571 349.443 157.569 344.51L157.537 303.893C157.231 286.688 157.363 267.198 157.71 250.065C151.088 249.355 144.198 248.045 137.687 246.686C131.827 245.463 126.635 241.842 121.691 238.759C112.415 232.973 107.629 229.681 106.995 218.273C103.578 213.103 96.455 208.211 96.0008 200.352C95.8218 198.624 95.765 192.326 96.756 190.908C102.029 183.364 112.657 162.038 122.136 161.315C127.211 160.757 131.036 161.131 135.87 162.48C147.854 157.17 153.388 159.937 163.904 165.856C167.047 167.625 184.779 163.094 188.184 161.504C192.506 151.648 196.517 145.131 207.159 140.94C215.294 137.797 224.34 137.987 232.335 141.469C234.779 142.56 237.081 143.946 239.187 145.597C240.459 146.575 242.143 148.013 243.503 148.738C246.724 146.952 250.375 145.344 253.51 143.523C262.065 138.554 270.39 135.742 280.34 138.184C286.827 139.775 291.028 145.797 294.783 150.786C298.735 155.862 300.527 156.846 301.392 163.534C301.862 164.265 303.705 164.749 304.535 164.848Z" fill="#364F8D"/>
<path d="M304.535 164.848C304.4 160.967 303.878 134.088 304.89 132.092C306.71 132.053 320.125 142.585 322.143 144.137C326.993 147.856 331.868 151.543 336.768 155.197C343.408 160.197 354.735 167.966 360.323 173.222C360.67 174.263 360.915 175.227 360.973 176.328C361.29 182.334 361.363 240.4 360.865 241.459C360.715 241.778 360.48 242.031 360.258 242.3C358.178 244.83 355.7 247.009 353.338 249.27L339.518 262.318C330.783 270.708 322.23 279.448 313.078 287.325C312.183 288.095 308.91 291.323 308.37 291.658C307.065 292.475 304.55 294.863 303.04 296.018C296.935 296.405 289.85 296.2 283.633 296.18C273.298 296.098 262.958 296.11 252.623 296.218C249.731 296.24 240.577 295.985 238.401 296.49C232.762 295.425 221.419 296.205 215.264 296.02L215.274 340.275C215.277 344.545 215.624 359.903 214.795 363.273C214.749 363.458 214.586 363.813 214.506 364.003C212.489 365.005 164.851 363.933 157.46 364.708C157.887 360.01 157.571 349.443 157.569 344.51L157.537 303.893C157.231 286.688 157.363 267.198 157.711 250.065C158.029 248.574 157.995 246.002 158.027 244.382C169.431 246.726 181.29 248.082 192.788 249.99C202.032 251.523 211.278 253.045 220.527 254.51C238.012 257.28 254.93 258.668 271.65 251.508C288.358 244.352 301.41 228.213 304.155 210.111C304.793 206.578 304.863 200.548 304.913 196.864C304.983 190.216 304.973 183.567 304.883 176.92C304.85 174.347 304.893 166.965 304.535 164.848Z" fill="#E78946"/>
<path d="M157.537 303.893C158.49 306.433 162.568 309.925 164.643 312.008C168.118 315.52 171.558 319.07 174.961 322.653C184.617 332.763 194.45 342.793 204.458 352.548C207.889 355.893 211.384 360.065 214.795 363.273C214.749 363.458 214.586 363.813 214.506 364.003C212.489 365.005 164.851 363.933 157.46 364.708C157.887 360.01 157.571 349.443 157.569 344.51L157.537 303.893Z" fill="#D87234"/>
<path d="M299.807 197.748C301.095 196.494 301.737 196.177 303.307 195.302C304.045 194.891 303.49 193.661 304.108 193.624C304.128 196.651 304.47 206.015 303.508 208.22C303.72 209.191 303.955 209.214 304.155 210.111C301.41 228.212 288.357 244.352 271.65 251.507C254.93 258.667 238.012 257.28 220.527 254.51C211.277 253.045 202.032 251.522 192.788 249.989C181.29 248.082 169.431 246.726 158.026 244.382C156.053 243.887 151.433 243.315 149.302 243.016C140.543 241.787 134.377 240.051 126.802 235.407C118.197 230.132 114.388 227.902 111.8 218.187C118.519 216.455 126.154 214.525 132.926 213.07C138.796 215.079 170.001 226.792 172.709 226.503C175.981 226.154 179.649 224.454 182.751 223.378C190.514 220.684 198.205 217.785 205.986 215.143L208.956 214.102C210.133 214.392 215.571 216.928 216.044 217.581C219.055 218.864 221.675 220.959 224.72 222.288L225.238 222.035L225.752 222.001C228.394 219.248 231.219 215.729 233.629 212.734C234.238 211.514 236.225 209.461 237.189 208.465C238.507 208.941 240.321 209.515 241.704 209.613C249.067 211.916 253.177 212.292 260.802 212.223L261.255 212.604C262.063 212.476 262.427 212.358 263.24 212.414C262.377 212.844 260.612 213.194 260.27 213.477C261.207 213.883 262.902 213.574 263.737 213.006L263.938 213.654C264.377 213.881 264.91 214.099 265.223 214.498L267.233 214.256L267.392 214.397C268.077 213.848 268.755 213.874 269.645 213.758C270.767 213.105 272.237 212.406 273.422 211.807C274.727 209.399 275.578 208.364 273.438 206.278C274.44 205.481 274.602 205.409 275.812 204.989C277.775 203.517 280.752 202.729 282.992 200.525C282.072 200.592 281.025 200.339 280.383 199.636L280.628 199.227C281.708 199.059 281.418 199.448 282.225 199.816C282.543 199.96 283.25 198.957 284.2 198.692L284.51 200.249C285.225 200.35 285.58 199.366 286.55 199.396C290.837 199.529 295.807 197.445 299.807 197.748Z" fill="#24376E"/>
<path d="M237.189 208.465C238.507 208.941 240.321 209.515 241.704 209.613C249.067 211.916 253.177 212.292 260.802 212.223L261.255 212.604C262.062 212.476 262.427 212.358 263.24 212.414C262.377 212.844 260.612 213.194 260.27 213.477C261.207 213.883 262.902 213.574 263.737 213.006L263.937 213.654C264.377 213.881 264.91 214.099 265.222 214.498C263.14 217.098 262.782 224.803 260.06 229.414C259.547 230.841 258.955 231.823 259.227 233.168L258.567 233.483C244.46 234.529 242.582 231.076 229.951 225.17C228.577 224.528 225.848 222.548 224.72 222.288L225.238 222.035L225.752 222.001C228.394 219.248 231.219 215.729 233.629 212.734C234.238 211.514 236.225 209.461 237.189 208.465Z" fill="#D0CFD0"/>
<path d="M237.189 208.465C238.508 208.941 240.321 209.515 241.704 209.613C249.067 211.916 253.178 212.292 260.803 212.223L261.255 212.604C262.063 212.476 262.428 212.358 263.24 212.414C262.378 212.844 260.613 213.194 260.27 213.477C261.208 213.883 262.903 213.574 263.738 213.006L263.938 213.654C264.378 213.881 264.91 214.099 265.223 214.498C263.14 217.098 262.783 224.803 260.06 229.414L259.463 229.933C258.11 230.018 257.943 230.015 256.703 229.482C256.32 228.998 256.22 228.809 255.638 228.592C255.238 228.233 254.72 227.115 254.335 226.585C252.58 224.15 250.58 220.195 247.981 218.798C246.861 219.124 246.569 220.518 245.329 221.007L245.235 220.81C245.699 220.369 246.088 220.055 246.42 219.506C245.378 214.533 237.869 214.719 233.791 213.718C233.8 213.197 233.8 213.193 233.629 212.734C234.238 211.514 236.225 209.461 237.189 208.465Z" fill="#B2B2B8"/>
<path d="M255.638 228.592C256.22 228.809 256.32 228.998 256.703 229.482C257.943 230.015 258.11 230.018 259.463 229.933L260.06 229.414C259.548 230.841 258.955 231.823 259.228 233.168L258.568 233.483C257.61 232.054 256.53 230.103 255.638 228.592Z" fill="#838AA0"/>
<path d="M267.392 214.397C268.077 213.848 268.755 213.874 269.645 213.758C270.042 214.078 270.552 214.453 270.882 214.821C272.332 214.784 272.905 213.932 273.972 214.081C275.412 215.489 274.692 216.429 276.755 216.71L276.927 218.254C277.792 218.637 279.027 219.129 279.785 219.64L280.49 220.108C271.76 228.519 269.92 229.079 259.227 233.168C258.955 231.823 259.547 230.841 260.06 229.414C262.782 224.804 263.14 217.098 265.222 214.498L267.232 214.256L267.392 214.397Z" fill="#D5D6D7"/>
<path d="M270.882 214.82C272.332 214.783 272.905 213.932 273.972 214.081C275.412 215.489 274.692 216.429 276.755 216.71L276.927 218.254C274.67 217.422 272.437 216.448 270.22 215.512L270.882 214.82Z" fill="#5F668C"/>
<path d="M267.392 214.397C268.077 213.848 268.755 213.874 269.645 213.758C270.042 214.078 270.552 214.453 270.882 214.821L270.22 215.513C269.405 215.277 268.21 214.737 267.392 214.397Z" fill="#828594"/>
<path d="M282.993 200.525L283.493 200.721C284.63 203.494 286.875 208.497 288.788 210.712C287.52 212.656 282.3 218.534 280.49 220.108L279.785 219.64C279.028 219.129 277.793 218.637 276.928 218.254L276.755 216.71C274.693 216.429 275.413 215.489 273.973 214.081C272.905 213.932 272.333 214.784 270.883 214.821C270.553 214.453 270.043 214.078 269.645 213.758C270.768 213.105 272.238 212.406 273.423 211.808C274.728 209.399 275.578 208.365 273.438 206.278C274.44 205.481 274.603 205.409 275.813 204.989C277.775 203.517 280.753 202.729 282.993 200.525Z" fill="#D5D6D7"/>
<path d="M275.813 204.989C275.875 209.533 276.465 210.631 276.918 214.452C276.745 215.472 276.683 215.698 276.755 216.71C274.693 216.429 275.413 215.489 273.973 214.081C272.905 213.932 272.333 214.784 270.883 214.821C270.553 214.453 270.043 214.078 269.645 213.758C270.768 213.105 272.238 212.406 273.423 211.808C274.728 209.399 275.578 208.365 273.438 206.278C274.44 205.481 274.603 205.409 275.813 204.989Z" fill="#838AA0"/>
<path d="M276.918 214.452C277.548 215.593 279.803 218.905 279.785 219.64C279.028 219.129 277.793 218.637 276.928 218.254L276.755 216.71C276.683 215.698 276.745 215.472 276.918 214.452Z" fill="#31437B"/>
<path d="M205.986 215.143L208.956 214.102C210.133 214.392 215.571 216.928 216.044 217.581C215.43 217.745 215.095 217.425 214.701 217.64C209.648 220.405 209.49 217.248 205.776 216.319L205.986 215.143Z" fill="#31437B"/>
<path d="M243.502 148.738C246.724 146.952 250.375 145.344 253.51 143.523C262.065 138.554 270.39 135.742 280.34 138.183C286.827 139.775 291.027 145.797 294.782 150.786C298.735 155.861 300.527 156.845 301.392 163.533C297.612 164.079 293.705 159.141 291.83 156.597C286.04 148.744 281.475 141.147 270.347 142.84C265.995 143.334 259.12 147.2 255.045 149.251L238.994 157.363C233.745 160.074 229.405 162.571 223.839 164.636C225.179 163.196 226.854 162.713 228.172 161.396C227.72 160.697 226.852 160.643 226.008 160.487C223.539 160.032 220.207 159.214 217.678 159.645C207.224 161.425 196.814 165.116 186.614 167.919C179.417 169.897 171.989 171.054 164.886 172.953L164.552 172.796C154.276 167.916 148.508 160.108 137.541 169.484C133.535 167.857 129.789 166.043 125.372 166.349L124.366 166.103L124.511 165.915C126.987 165.425 129.219 166.259 131.815 166.533C131.374 166.225 131.429 166.256 130.922 166.2C130.206 165.108 129.241 164.879 128.64 163.964C128.727 164.097 128.347 162.451 128.036 161.791C126.115 161.253 124.019 161.9 122.136 161.314C127.211 160.757 131.036 161.131 135.87 162.48C147.854 157.169 153.388 159.937 163.904 165.856C167.047 167.625 184.779 163.094 188.183 161.504C192.506 151.648 196.517 145.131 207.159 140.94C215.293 137.797 224.34 137.987 232.335 141.469C234.779 142.56 237.08 143.946 239.187 145.597C240.459 146.575 242.143 148.013 243.502 148.738Z" fill="#E79A59"/>
<path d="M106.995 218.272C103.578 213.103 96.455 208.211 96.0008 200.352C95.8218 198.624 95.765 192.325 96.756 190.908C102.029 183.364 112.657 162.037 122.136 161.314C124.019 161.9 126.115 161.253 128.037 161.791C128.347 162.451 128.728 164.097 128.64 163.964C129.241 164.879 130.207 165.108 130.922 166.2C131.429 166.256 131.374 166.225 131.815 166.533C129.219 166.259 126.987 165.425 124.511 165.915L124.366 166.103L125.372 166.349C120.264 166.723 118.263 169.305 115.599 173.303C110.982 180.233 105.891 187.069 101.553 194.157C98.5633 199.043 105.553 207.545 108.493 211.021L110.292 213.178C117.815 210.961 125.786 209.315 132.958 207.059C136.059 208.469 141.243 210.15 144.667 211.377L172.034 220.941C175.317 220.122 180.741 217.987 184.02 216.78C192.333 213.703 200.61 210.531 208.85 207.264C209.087 209.297 208.978 212.005 208.956 214.102L205.986 215.143C198.205 217.785 190.515 220.684 182.751 223.378C179.649 224.454 175.982 226.154 172.71 226.503C170.001 226.792 138.796 215.079 132.926 213.07C126.154 214.525 118.519 216.455 111.8 218.187C114.388 227.902 118.197 230.132 126.802 235.407C134.378 240.051 140.543 241.787 149.302 243.016C151.433 243.315 156.053 243.887 158.027 244.382C157.995 246.002 158.029 248.573 157.71 250.065C151.088 249.355 144.198 248.045 137.687 246.686C131.827 245.463 126.635 241.842 121.691 238.758C112.415 232.973 107.629 229.68 106.995 218.272Z" fill="#BF6B39"/>
<path d="M108.492 211.021C111.754 209.153 115.392 208.973 119.083 207.947C121.168 207.367 129.536 205.128 131.412 205.359C141.092 206.655 150.108 211.078 159.262 214.395C162.681 215.634 169.151 217.476 172.837 217.968C173.852 218.103 178.143 216.092 179.498 215.68C186.525 213.624 193.099 210.672 199.857 208.031C201.014 207.579 216.245 201.972 216.365 202.003C223.5 203.802 230.319 206.064 237.882 206.682C238.474 206.73 240.922 207.229 241.254 207.685L240.451 207.864C240.565 208.574 241.184 209.146 241.704 209.613C240.321 209.515 238.508 208.941 237.189 208.465C236.225 209.461 234.238 211.514 233.629 212.734C231.219 215.729 228.394 219.248 225.752 222.001L225.238 222.035L224.72 222.288C221.675 220.959 219.055 218.864 216.044 217.581C215.571 216.928 210.133 214.392 208.956 214.102C208.978 212.005 209.086 209.297 208.85 207.264C200.61 210.531 192.332 213.703 184.019 216.78C180.74 217.987 175.317 220.122 172.034 220.941L144.666 211.377C141.243 210.15 136.059 208.469 132.957 207.059C125.786 209.315 117.814 210.961 110.292 213.178L108.492 211.021Z" fill="#1F336C"/>
<path d="M208.85 207.264L216.715 204.264C220.344 210.755 222.721 215.059 225.238 222.035L224.72 222.288C221.675 220.959 219.055 218.864 216.044 217.581C215.571 216.928 210.133 214.392 208.956 214.102C208.978 212.005 209.086 209.297 208.85 207.264Z" fill="#C5C5C7"/>
<path d="M273.438 206.278C275.578 208.364 274.728 209.399 273.423 211.807C272.238 212.406 270.768 213.105 269.645 213.758C268.755 213.874 268.078 213.848 267.393 214.397L267.233 214.256L265.223 214.498C264.91 214.099 264.378 213.881 263.938 213.654L263.738 213.006C262.903 213.574 261.208 213.883 260.27 213.477C260.613 213.194 262.378 212.844 263.24 212.414C262.428 212.358 262.063 212.476 261.255 212.604L260.803 212.223C260.848 212.202 260.895 212.18 260.94 212.158C265.57 211.266 269.278 208.521 273.173 206.419L273.438 206.278Z" fill="#A5A7B1"/>
<path d="M263.737 213.006C265.127 212.513 266.235 213.219 267.233 214.256L265.223 214.498C264.91 214.099 264.377 213.881 263.938 213.654L263.737 213.006Z" fill="#CECFDE"/>
<path d="M274.395 159.046C275.573 159.496 276.06 159.628 276.818 160.665C273.24 164.1 273.573 165.245 271.298 167.884C273.775 170.492 274.455 174.327 273.03 177.629C271.603 180.932 268.345 183.065 264.748 183.05C261.15 183.035 257.91 180.876 256.51 177.562C255.668 175.568 255.575 173.337 256.248 171.279C257.37 167.841 260.448 165.412 264.053 165.118C265.315 163.663 272.505 159.905 274.395 159.046Z" fill="#D5D6D7"/>
<path d="M274.395 159.046C275.572 159.496 276.06 159.628 276.818 160.665C273.24 164.1 273.572 165.245 271.297 167.884C269.425 165.914 266.762 164.896 264.052 165.118C265.315 163.663 272.505 159.905 274.395 159.046Z" fill="#D87234"/>
<path d="M146.854 175.039C147.291 175.024 148.427 175.001 148.783 175.159C152.206 176.677 157.163 184.598 158.667 187.619C157.642 186.958 156.693 186.212 155.72 185.477C153.545 183.919 151.455 181.844 149.285 180.317C146.539 178.385 145.578 178.263 142.588 178.747C143.877 177.566 145.466 176.026 146.854 175.039Z" fill="#D5D6D7"/>
<path d="M256.247 171.279C255.575 173.337 255.668 175.568 256.51 177.562C254.493 177.892 245.296 176.886 243.018 176.544C244.944 175.652 254.57 171.574 256.247 171.279Z" fill="#D87234"/>
<path d="M123.598 175.211C125.262 175.136 126.225 175.738 127.714 176.425C123.705 179.226 121.678 181.292 118.18 184.687L115.401 187.55C117.301 182.964 119.195 177.837 123.598 175.211Z" fill="#CECFDE"/>
<path d="M274.395 159.046C277.215 157.752 278.93 160.118 280.883 161.961C281.83 162.856 282.87 163.747 283.745 164.694C282.518 163.992 277.623 161.012 276.818 160.665C276.06 159.628 275.573 159.496 274.395 159.046Z" fill="#31437B"/>
<path d="M297.443 167.864C297.768 167.997 297.86 168.097 298.152 168.303C298.9 169.853 298.935 170.87 299 172.591C298.108 171.862 297.72 169.128 297.443 167.864Z" fill="#071241"/>
<path d="M303.04 296.018C304.55 294.863 307.065 292.475 308.37 291.658C308.262 293.748 309.107 293.455 309.33 294.483C314.075 299.323 317.638 303.558 322.035 308.443L342.818 331.593C346.483 335.673 350.175 339.145 353.628 343.563C356.48 347.21 360.722 350.745 363.56 354.59C366.235 357.79 369.823 360.63 371.565 364.388L323.842 364.363L308.478 364.378C305.428 364.383 301.703 364.483 298.73 364.223C296.008 362.25 293.61 358.888 291.332 356.288L275.578 338.115L253.342 313.033C251.315 310.723 247.329 306.503 245.561 304.283C244.031 303.383 240.939 298.065 238.401 296.49C240.576 295.985 249.731 296.24 252.622 296.218C262.957 296.11 273.298 296.098 283.633 296.18C289.85 296.2 296.935 296.405 303.04 296.018Z" fill="#D87234"/>
<path d="M303.04 296.018C304.55 294.863 307.065 292.475 308.37 291.658C308.262 293.748 309.107 293.455 309.33 294.483L308.783 294.518C308.043 293.608 308.338 293.685 307.42 293.478C305.335 294.153 304.808 295.128 303.128 296.295C296.435 296.93 288.06 296.515 281.175 296.513L244.908 296.623C243.895 297.278 242.662 297.728 242.011 298.67C241.931 299.86 242.784 300.283 243.587 301.14C244.402 302.013 244.979 303.193 245.85 303.925L245.561 304.283C244.031 303.383 240.939 298.065 238.401 296.49C240.576 295.985 249.731 296.24 252.622 296.218C262.957 296.11 273.298 296.098 283.633 296.18C289.85 296.2 296.935 296.405 303.04 296.018Z" fill="#A25024"/>
</svg>
